G75*
%MOIN*%
%OFA0B0*%
%FSLAX24Y24*%
%IPPOS*%
%LPD*%
%AMOC8*
5,1,8,0,0,1.08239X$1,22.5*
%
%ADD10R,0.0591X0.0197*%
%ADD11R,0.0197X0.0591*%
%ADD12R,0.2100X0.0760*%
%ADD13R,0.0157X0.0551*%
%ADD14R,0.0709X0.0591*%
%ADD15R,0.0591X0.0276*%
%ADD16R,0.0433X0.0394*%
%ADD17R,0.0984X0.0787*%
%ADD18R,0.0787X0.0984*%
%ADD19R,0.0984X0.0472*%
%ADD20R,0.0551X0.0630*%
%ADD21R,0.0866X0.0236*%
D10*
X006317Y013060D03*
X006317Y013375D03*
X006317Y013690D03*
X006317Y014005D03*
X006317Y014320D03*
X006317Y014635D03*
X006317Y014950D03*
X006317Y015265D03*
X006317Y015580D03*
X006317Y015894D03*
X006317Y016209D03*
X010883Y016209D03*
X010883Y015894D03*
X010883Y015580D03*
X010883Y015265D03*
X010883Y014950D03*
X010883Y014635D03*
X010883Y014320D03*
X010883Y014005D03*
X010883Y013690D03*
X010883Y013375D03*
X010883Y013060D03*
D11*
X010175Y012351D03*
X009860Y012351D03*
X009545Y012351D03*
X009230Y012351D03*
X008915Y012351D03*
X008600Y012351D03*
X008285Y012351D03*
X007970Y012351D03*
X007655Y012351D03*
X007340Y012351D03*
X007025Y012351D03*
X007025Y016918D03*
X007340Y016918D03*
X007655Y016918D03*
X007970Y016918D03*
X008285Y016918D03*
X008600Y016918D03*
X008915Y016918D03*
X009230Y016918D03*
X009545Y016918D03*
X009860Y016918D03*
X010175Y016918D03*
D12*
X010750Y009635D03*
X006950Y009635D03*
D13*
X005112Y003198D03*
X004856Y003198D03*
X004600Y003198D03*
X004344Y003198D03*
X004088Y003198D03*
D14*
X003150Y002135D03*
X006050Y002135D03*
D15*
X004600Y002135D03*
D16*
X009515Y005135D03*
X010185Y005135D03*
X011265Y005135D03*
X011935Y005135D03*
X010185Y007135D03*
X009515Y007135D03*
X008185Y007135D03*
X007515Y007135D03*
X005935Y006635D03*
X005265Y006635D03*
X004622Y008721D03*
X003952Y008721D03*
X002403Y008721D03*
X001734Y008721D03*
X001734Y010296D03*
X002403Y010296D03*
X003952Y010296D03*
X004622Y010296D03*
X002185Y016135D03*
X001515Y016135D03*
X007015Y018635D03*
X007685Y018635D03*
X008765Y018635D03*
X009435Y018635D03*
X013515Y015635D03*
X014185Y015635D03*
X020765Y009885D03*
X021435Y009885D03*
X021435Y008635D03*
X020765Y008635D03*
X016685Y008635D03*
X016015Y008635D03*
X013935Y009385D03*
X013265Y009385D03*
D17*
X015458Y005991D03*
X017992Y003078D03*
X015458Y002330D03*
X012742Y003078D03*
X020708Y002330D03*
X020708Y005991D03*
D18*
X019055Y007585D03*
X013805Y007585D03*
D19*
X012742Y001975D03*
X017992Y001975D03*
D20*
X006401Y005135D03*
X005299Y005135D03*
D21*
X020076Y012635D03*
X020076Y013135D03*
X020076Y013635D03*
X020076Y014135D03*
X022124Y014135D03*
X022124Y013635D03*
X022124Y013135D03*
X022124Y012635D03*
M02*
