G75*
%MOIN*%
%OFA0B0*%
%FSLAX24Y24*%
%IPPOS*%
%LPD*%
%AMOC8*
5,1,8,0,0,1.08239X$1,22.5*
%
%ADD10R,0.0671X0.0277*%
%ADD11R,0.0277X0.0671*%
%ADD12R,0.2180X0.0840*%
%ADD13R,0.0237X0.0631*%
%ADD14C,0.0415*%
%ADD15R,0.0787X0.0669*%
%ADD16R,0.1063X0.0669*%
%ADD17R,0.0513X0.0474*%
%ADD18C,0.0820*%
%ADD19C,0.0640*%
%ADD20R,0.1064X0.0867*%
%ADD21R,0.0867X0.1064*%
%ADD22R,0.1064X0.0552*%
%ADD23C,0.0867*%
%ADD24R,0.0820X0.0820*%
%ADD25OC8,0.0820*%
%ADD26R,0.0631X0.0710*%
%ADD27R,0.0946X0.0316*%
%ADD28C,0.0350*%
%ADD29C,0.0500*%
%ADD30C,0.0516*%
%ADD31C,0.1661*%
D10*
X006317Y013060D03*
X006317Y013375D03*
X006317Y013690D03*
X006317Y014005D03*
X006317Y014320D03*
X006317Y014635D03*
X006317Y014950D03*
X006317Y015265D03*
X006317Y015580D03*
X006317Y015894D03*
X006317Y016209D03*
X010883Y016209D03*
X010883Y015894D03*
X010883Y015580D03*
X010883Y015265D03*
X010883Y014950D03*
X010883Y014635D03*
X010883Y014320D03*
X010883Y014005D03*
X010883Y013690D03*
X010883Y013375D03*
X010883Y013060D03*
D11*
X010175Y012351D03*
X009860Y012351D03*
X009545Y012351D03*
X009230Y012351D03*
X008915Y012351D03*
X008600Y012351D03*
X008285Y012351D03*
X007970Y012351D03*
X007655Y012351D03*
X007340Y012351D03*
X007025Y012351D03*
X007025Y016918D03*
X007340Y016918D03*
X007655Y016918D03*
X007970Y016918D03*
X008285Y016918D03*
X008600Y016918D03*
X008915Y016918D03*
X009230Y016918D03*
X009545Y016918D03*
X009860Y016918D03*
X010175Y016918D03*
D12*
X010750Y009635D03*
X006950Y009635D03*
D13*
X005112Y003198D03*
X004856Y003198D03*
X004600Y003198D03*
X004344Y003198D03*
X004088Y003198D03*
D14*
X003852Y003001D03*
X005348Y003001D03*
D15*
X003150Y002135D03*
X006050Y002135D03*
D16*
X004600Y002135D03*
D17*
X009515Y005135D03*
X010185Y005135D03*
X011265Y005135D03*
X011935Y005135D03*
X010185Y007135D03*
X009515Y007135D03*
X008185Y007135D03*
X007515Y007135D03*
X005935Y006635D03*
X005265Y006635D03*
X004622Y008721D03*
X003952Y008721D03*
X002403Y008721D03*
X001734Y008721D03*
X001734Y010296D03*
X002403Y010296D03*
X003952Y010296D03*
X004622Y010296D03*
X002185Y016135D03*
X001515Y016135D03*
X007015Y018635D03*
X007685Y018635D03*
X008765Y018635D03*
X009435Y018635D03*
X013515Y015635D03*
X014185Y015635D03*
X020765Y009885D03*
X021435Y009885D03*
X021435Y008635D03*
X020765Y008635D03*
X016685Y008635D03*
X016015Y008635D03*
X013935Y009385D03*
X013265Y009385D03*
D18*
X013070Y011495D03*
X013070Y013275D03*
X015630Y013275D03*
X015630Y011495D03*
X015880Y017495D03*
X015880Y019275D03*
X013320Y019275D03*
X013320Y017495D03*
D19*
X004100Y018385D03*
X003100Y018385D03*
X003100Y012385D03*
X004100Y012385D03*
X004100Y006135D03*
X003100Y006135D03*
D20*
X012742Y003078D03*
X015458Y002330D03*
X017992Y003078D03*
X020708Y002330D03*
X020708Y005991D03*
X015458Y005991D03*
D21*
X013805Y007585D03*
X019055Y007585D03*
D22*
X017992Y001975D03*
X012742Y001975D03*
D23*
X014100Y002763D03*
X014100Y005519D03*
X019350Y005519D03*
X019350Y002763D03*
D24*
X018100Y017635D03*
D25*
X019100Y017635D03*
X020100Y017635D03*
X020100Y018635D03*
X019100Y018635D03*
X018100Y018635D03*
D26*
X006401Y005135D03*
X005299Y005135D03*
D27*
X020076Y012635D03*
X020076Y013135D03*
X020076Y013635D03*
X020076Y014135D03*
X022124Y014135D03*
X022124Y013635D03*
X022124Y013135D03*
X022124Y012635D03*
D28*
X010084Y002635D03*
X008116Y002635D03*
D29*
X007722Y003619D03*
X010478Y003619D03*
D30*
X011350Y004135D03*
X012100Y006385D03*
X010850Y007885D03*
X008850Y006385D03*
X006850Y004135D03*
X004350Y005385D03*
X002600Y004135D03*
X002850Y007635D03*
X003100Y010135D03*
X003100Y010885D03*
X002350Y012385D03*
X001850Y013385D03*
X000850Y014635D03*
X003100Y015385D03*
X003600Y016385D03*
X005100Y014385D03*
X004600Y013885D03*
X005100Y013385D03*
X006600Y012135D03*
X006350Y011135D03*
X004850Y011635D03*
X007850Y014135D03*
X008600Y014385D03*
X009100Y013885D03*
X008350Y015135D03*
X008100Y015635D03*
X007850Y016135D03*
X008850Y015385D03*
X009100Y015885D03*
X010100Y016135D03*
X009350Y017635D03*
X008600Y017635D03*
X006600Y017885D03*
X010600Y018635D03*
X012100Y014135D03*
X012100Y013135D03*
X010600Y011885D03*
X009100Y010885D03*
X015100Y008885D03*
X015100Y008135D03*
X016600Y007135D03*
X017350Y006385D03*
X017350Y005635D03*
X018350Y005635D03*
X018350Y006385D03*
X017350Y008635D03*
X017350Y009635D03*
X022600Y010385D03*
X019100Y014885D03*
X022100Y015885D03*
X022350Y017385D03*
X020850Y003385D03*
D31*
X022536Y006211D03*
X022536Y018711D03*
X001286Y018711D03*
X001286Y006211D03*
M02*
