%
M48
M72
T01C0.0236
T02C0.0315
T03C0.0320
T04C0.0335
T05C0.0400
T06C0.0472
T07C0.0787
T08C0.1181
%
T01
X2600Y4135
X4350Y5385
X6850Y4135
X8850Y6385
X10850Y7885
X12100Y6385
X11350Y4135
X15100Y8135
X15100Y8885
X17350Y8635
X17350Y9635
X16600Y7135
X17350Y6385
X17350Y5635
X18350Y5635
X18350Y6385
X20850Y3385
X22600Y10385
X19100Y14885
X22100Y15885
X22350Y17385
X12100Y14135
X12100Y13135
X10600Y11885
X9100Y10885
X6600Y12135
X6350Y11135
X4850Y11635
X3100Y10885
X3100Y10135
X2350Y12385
X1850Y13385
X850Y14635
X3100Y15385
X3600Y16385
X5100Y14385
X4600Y13885
X5100Y13385
X7850Y14135
X8600Y14385
X9100Y13885
X8350Y15135
X8100Y15635
X7850Y16135
X8850Y15385
X9100Y15885
X10100Y16135
X9350Y17635
X8600Y17635
X6600Y17885
X10600Y18635
X2850Y7635
T02
X8116Y2635
X10084Y2635
T03
X4100Y6135
X3100Y6135
X3100Y12385
X4100Y12385
X4100Y18385
X3100Y18385
T04
X3852Y3001
X5348Y3001
T05
X13070Y11495
X13070Y13275
X15630Y13275
X15630Y11495
X15880Y17495
X15880Y19275
X18100Y18635
X19100Y18635
X20100Y18635
X20100Y17635
X19100Y17635
X18100Y17635
X13320Y17495
X13320Y19275
T06
X10478Y3619
X7722Y3619
T07
X14100Y2763
X14100Y5519
X19350Y5519
X19350Y2763
T08
X22536Y6211
X22536Y18711
X1286Y18711
X1286Y6211
M30
