G75*
%MOIN*%
%OFA0B0*%
%FSLAX24Y24*%
%IPPOS*%
%LPD*%
%AMOC8*
5,1,8,0,0,1.08239X$1,22.5*
%
%ADD10C,0.0000*%
%ADD11C,0.0040*%
%ADD12C,0.0060*%
%ADD13C,0.0100*%
%ADD14C,0.0080*%
%ADD15C,0.0020*%
%ADD16C,0.0050*%
%ADD17C,0.0120*%
%ADD18C,0.0220*%
%ADD19R,0.0180X0.0300*%
D10*
X002462Y001635D02*
X002462Y003406D01*
X000100Y005769D01*
X000100Y019745D01*
X023722Y019745D01*
X023722Y005769D01*
X021360Y003406D01*
X021360Y001635D01*
X002462Y001635D01*
X003685Y003001D02*
X003687Y003026D01*
X003693Y003051D01*
X003702Y003075D01*
X003715Y003097D01*
X003732Y003117D01*
X003751Y003134D01*
X003772Y003148D01*
X003796Y003158D01*
X003820Y003165D01*
X003846Y003168D01*
X003871Y003167D01*
X003896Y003162D01*
X003920Y003153D01*
X003943Y003141D01*
X003963Y003126D01*
X003981Y003107D01*
X003996Y003086D01*
X004007Y003063D01*
X004015Y003039D01*
X004019Y003014D01*
X004019Y002988D01*
X004015Y002963D01*
X004007Y002939D01*
X003996Y002916D01*
X003981Y002895D01*
X003963Y002876D01*
X003943Y002861D01*
X003920Y002849D01*
X003896Y002840D01*
X003871Y002835D01*
X003846Y002834D01*
X003820Y002837D01*
X003796Y002844D01*
X003772Y002854D01*
X003751Y002868D01*
X003732Y002885D01*
X003715Y002905D01*
X003702Y002927D01*
X003693Y002951D01*
X003687Y002976D01*
X003685Y003001D01*
X005181Y003001D02*
X005183Y003026D01*
X005189Y003051D01*
X005198Y003075D01*
X005211Y003097D01*
X005228Y003117D01*
X005247Y003134D01*
X005268Y003148D01*
X005292Y003158D01*
X005316Y003165D01*
X005342Y003168D01*
X005367Y003167D01*
X005392Y003162D01*
X005416Y003153D01*
X005439Y003141D01*
X005459Y003126D01*
X005477Y003107D01*
X005492Y003086D01*
X005503Y003063D01*
X005511Y003039D01*
X005515Y003014D01*
X005515Y002988D01*
X005511Y002963D01*
X005503Y002939D01*
X005492Y002916D01*
X005477Y002895D01*
X005459Y002876D01*
X005439Y002861D01*
X005416Y002849D01*
X005392Y002840D01*
X005367Y002835D01*
X005342Y002834D01*
X005316Y002837D01*
X005292Y002844D01*
X005268Y002854D01*
X005247Y002868D01*
X005228Y002885D01*
X005211Y002905D01*
X005198Y002927D01*
X005189Y002951D01*
X005183Y002976D01*
X005181Y003001D01*
X013706Y002763D02*
X013708Y002802D01*
X013714Y002841D01*
X013724Y002879D01*
X013737Y002916D01*
X013754Y002951D01*
X013774Y002985D01*
X013798Y003016D01*
X013825Y003045D01*
X013854Y003071D01*
X013886Y003094D01*
X013920Y003114D01*
X013956Y003130D01*
X013993Y003142D01*
X014032Y003151D01*
X014071Y003156D01*
X014110Y003157D01*
X014149Y003154D01*
X014188Y003147D01*
X014225Y003136D01*
X014262Y003122D01*
X014297Y003104D01*
X014330Y003083D01*
X014361Y003058D01*
X014389Y003031D01*
X014414Y003001D01*
X014436Y002968D01*
X014455Y002934D01*
X014470Y002898D01*
X014482Y002860D01*
X014490Y002822D01*
X014494Y002783D01*
X014494Y002743D01*
X014490Y002704D01*
X014482Y002666D01*
X014470Y002628D01*
X014455Y002592D01*
X014436Y002558D01*
X014414Y002525D01*
X014389Y002495D01*
X014361Y002468D01*
X014330Y002443D01*
X014297Y002422D01*
X014262Y002404D01*
X014225Y002390D01*
X014188Y002379D01*
X014149Y002372D01*
X014110Y002369D01*
X014071Y002370D01*
X014032Y002375D01*
X013993Y002384D01*
X013956Y002396D01*
X013920Y002412D01*
X013886Y002432D01*
X013854Y002455D01*
X013825Y002481D01*
X013798Y002510D01*
X013774Y002541D01*
X013754Y002575D01*
X013737Y002610D01*
X013724Y002647D01*
X013714Y002685D01*
X013708Y002724D01*
X013706Y002763D01*
X013706Y005519D02*
X013708Y005558D01*
X013714Y005597D01*
X013724Y005635D01*
X013737Y005672D01*
X013754Y005707D01*
X013774Y005741D01*
X013798Y005772D01*
X013825Y005801D01*
X013854Y005827D01*
X013886Y005850D01*
X013920Y005870D01*
X013956Y005886D01*
X013993Y005898D01*
X014032Y005907D01*
X014071Y005912D01*
X014110Y005913D01*
X014149Y005910D01*
X014188Y005903D01*
X014225Y005892D01*
X014262Y005878D01*
X014297Y005860D01*
X014330Y005839D01*
X014361Y005814D01*
X014389Y005787D01*
X014414Y005757D01*
X014436Y005724D01*
X014455Y005690D01*
X014470Y005654D01*
X014482Y005616D01*
X014490Y005578D01*
X014494Y005539D01*
X014494Y005499D01*
X014490Y005460D01*
X014482Y005422D01*
X014470Y005384D01*
X014455Y005348D01*
X014436Y005314D01*
X014414Y005281D01*
X014389Y005251D01*
X014361Y005224D01*
X014330Y005199D01*
X014297Y005178D01*
X014262Y005160D01*
X014225Y005146D01*
X014188Y005135D01*
X014149Y005128D01*
X014110Y005125D01*
X014071Y005126D01*
X014032Y005131D01*
X013993Y005140D01*
X013956Y005152D01*
X013920Y005168D01*
X013886Y005188D01*
X013854Y005211D01*
X013825Y005237D01*
X013798Y005266D01*
X013774Y005297D01*
X013754Y005331D01*
X013737Y005366D01*
X013724Y005403D01*
X013714Y005441D01*
X013708Y005480D01*
X013706Y005519D01*
X018956Y005519D02*
X018958Y005558D01*
X018964Y005597D01*
X018974Y005635D01*
X018987Y005672D01*
X019004Y005707D01*
X019024Y005741D01*
X019048Y005772D01*
X019075Y005801D01*
X019104Y005827D01*
X019136Y005850D01*
X019170Y005870D01*
X019206Y005886D01*
X019243Y005898D01*
X019282Y005907D01*
X019321Y005912D01*
X019360Y005913D01*
X019399Y005910D01*
X019438Y005903D01*
X019475Y005892D01*
X019512Y005878D01*
X019547Y005860D01*
X019580Y005839D01*
X019611Y005814D01*
X019639Y005787D01*
X019664Y005757D01*
X019686Y005724D01*
X019705Y005690D01*
X019720Y005654D01*
X019732Y005616D01*
X019740Y005578D01*
X019744Y005539D01*
X019744Y005499D01*
X019740Y005460D01*
X019732Y005422D01*
X019720Y005384D01*
X019705Y005348D01*
X019686Y005314D01*
X019664Y005281D01*
X019639Y005251D01*
X019611Y005224D01*
X019580Y005199D01*
X019547Y005178D01*
X019512Y005160D01*
X019475Y005146D01*
X019438Y005135D01*
X019399Y005128D01*
X019360Y005125D01*
X019321Y005126D01*
X019282Y005131D01*
X019243Y005140D01*
X019206Y005152D01*
X019170Y005168D01*
X019136Y005188D01*
X019104Y005211D01*
X019075Y005237D01*
X019048Y005266D01*
X019024Y005297D01*
X019004Y005331D01*
X018987Y005366D01*
X018974Y005403D01*
X018964Y005441D01*
X018958Y005480D01*
X018956Y005519D01*
X018956Y002763D02*
X018958Y002802D01*
X018964Y002841D01*
X018974Y002879D01*
X018987Y002916D01*
X019004Y002951D01*
X019024Y002985D01*
X019048Y003016D01*
X019075Y003045D01*
X019104Y003071D01*
X019136Y003094D01*
X019170Y003114D01*
X019206Y003130D01*
X019243Y003142D01*
X019282Y003151D01*
X019321Y003156D01*
X019360Y003157D01*
X019399Y003154D01*
X019438Y003147D01*
X019475Y003136D01*
X019512Y003122D01*
X019547Y003104D01*
X019580Y003083D01*
X019611Y003058D01*
X019639Y003031D01*
X019664Y003001D01*
X019686Y002968D01*
X019705Y002934D01*
X019720Y002898D01*
X019732Y002860D01*
X019740Y002822D01*
X019744Y002783D01*
X019744Y002743D01*
X019740Y002704D01*
X019732Y002666D01*
X019720Y002628D01*
X019705Y002592D01*
X019686Y002558D01*
X019664Y002525D01*
X019639Y002495D01*
X019611Y002468D01*
X019580Y002443D01*
X019547Y002422D01*
X019512Y002404D01*
X019475Y002390D01*
X019438Y002379D01*
X019399Y002372D01*
X019360Y002369D01*
X019321Y002370D01*
X019282Y002375D01*
X019243Y002384D01*
X019206Y002396D01*
X019170Y002412D01*
X019136Y002432D01*
X019104Y002455D01*
X019075Y002481D01*
X019048Y002510D01*
X019024Y002541D01*
X019004Y002575D01*
X018987Y002610D01*
X018974Y002647D01*
X018964Y002685D01*
X018958Y002724D01*
X018956Y002763D01*
D11*
X020870Y004481D02*
X020947Y004405D01*
X021023Y004405D01*
X021100Y004481D01*
X021100Y004865D01*
X021023Y004865D02*
X021177Y004865D01*
X021330Y004865D02*
X021561Y004865D01*
X021637Y004788D01*
X021637Y004635D01*
X021561Y004558D01*
X021330Y004558D01*
X021330Y004405D02*
X021330Y004865D01*
X021791Y004788D02*
X021868Y004865D01*
X022021Y004865D01*
X022098Y004788D01*
X022098Y004712D01*
X022021Y004635D01*
X022098Y004558D01*
X022098Y004481D01*
X022021Y004405D01*
X021868Y004405D01*
X021791Y004481D01*
X021944Y004635D02*
X022021Y004635D01*
X016598Y003538D02*
X016521Y003615D01*
X016368Y003615D01*
X016291Y003538D01*
X016137Y003538D02*
X016061Y003615D01*
X015830Y003615D01*
X015830Y003155D01*
X015830Y003308D02*
X016061Y003308D01*
X016137Y003385D01*
X016137Y003538D01*
X016291Y003155D02*
X016598Y003462D01*
X016598Y003538D01*
X016598Y003155D02*
X016291Y003155D01*
X015600Y003231D02*
X015600Y003615D01*
X015523Y003615D02*
X015677Y003615D01*
X015600Y003231D02*
X015523Y003155D01*
X015447Y003155D01*
X015370Y003231D01*
X006244Y004050D02*
X006167Y003974D01*
X006013Y003974D01*
X005937Y004050D01*
X005937Y004204D02*
X006090Y004280D01*
X006167Y004280D01*
X006244Y004204D01*
X006244Y004050D01*
X005937Y004204D02*
X005937Y004434D01*
X006244Y004434D01*
X005783Y004357D02*
X005706Y004434D01*
X005553Y004434D01*
X005476Y004357D01*
X005476Y004050D01*
X005553Y003974D01*
X005706Y003974D01*
X005783Y004050D01*
X003955Y003616D02*
X003648Y003616D01*
X003801Y003616D02*
X003801Y004076D01*
X003648Y003923D01*
X003494Y003999D02*
X003494Y003846D01*
X003418Y003769D01*
X003187Y003769D01*
X003187Y003616D02*
X003187Y004076D01*
X003418Y004076D01*
X003494Y003999D01*
X003034Y004076D02*
X002880Y004076D01*
X002957Y004076D02*
X002957Y003692D01*
X002880Y003616D01*
X002804Y003616D01*
X002727Y003692D01*
X005772Y016686D02*
X005695Y016762D01*
X005695Y017146D01*
X006002Y017146D02*
X006002Y016762D01*
X005925Y016686D01*
X005772Y016686D01*
X006156Y016686D02*
X006463Y016686D01*
X006309Y016686D02*
X006309Y017146D01*
X006156Y016993D01*
X020561Y015452D02*
X020714Y015452D01*
X020638Y015452D02*
X020638Y014991D01*
X020714Y014991D02*
X020561Y014991D01*
X020868Y015068D02*
X020868Y015375D01*
X020945Y015452D01*
X021098Y015452D01*
X021175Y015375D01*
X021328Y015298D02*
X021482Y015452D01*
X021482Y014991D01*
X021635Y014991D02*
X021328Y014991D01*
X021175Y015068D02*
X021098Y014991D01*
X020945Y014991D01*
X020868Y015068D01*
D12*
X020783Y011861D02*
X020783Y011754D01*
X020783Y011540D02*
X020783Y011113D01*
X020676Y011113D02*
X020890Y011113D01*
X021213Y011220D02*
X021319Y011113D01*
X021213Y011220D02*
X021213Y011647D01*
X021319Y011540D02*
X021106Y011540D01*
X021536Y011434D02*
X021536Y011220D01*
X021642Y011113D01*
X021856Y011113D01*
X021963Y011220D01*
X021963Y011434D01*
X021856Y011540D01*
X021642Y011540D01*
X021536Y011434D01*
X022180Y011540D02*
X022180Y011113D01*
X022180Y011327D02*
X022394Y011540D01*
X022500Y011540D01*
X023362Y011540D02*
X023575Y011754D01*
X023575Y011113D01*
X023362Y011113D02*
X023789Y011113D01*
X024006Y011113D02*
X024113Y011113D01*
X024113Y011220D01*
X024006Y011220D01*
X024006Y011113D01*
X024329Y011220D02*
X024435Y011113D01*
X024649Y011113D01*
X024756Y011220D01*
X024756Y011327D01*
X024649Y011434D01*
X024542Y011434D01*
X024649Y011434D02*
X024756Y011540D01*
X024756Y011647D01*
X024649Y011754D01*
X024435Y011754D01*
X024329Y011647D01*
X020783Y011540D02*
X020676Y011540D01*
X020459Y011434D02*
X020459Y011113D01*
X020459Y011434D02*
X020352Y011540D01*
X020032Y011540D01*
X020032Y011113D01*
X019814Y011220D02*
X019814Y011434D01*
X019707Y011540D01*
X019494Y011540D01*
X019387Y011434D01*
X019387Y011220D01*
X019494Y011113D01*
X019707Y011113D01*
X019814Y011220D01*
X019170Y011113D02*
X019170Y011754D01*
X018956Y011540D01*
X018743Y011754D01*
X018743Y011113D01*
X018525Y011220D02*
X018525Y011540D01*
X018525Y011220D02*
X018418Y011113D01*
X018311Y011220D01*
X018205Y011113D01*
X018098Y011220D01*
X018098Y011540D01*
X017880Y011434D02*
X017880Y011327D01*
X017453Y011327D01*
X017453Y011434D02*
X017560Y011540D01*
X017774Y011540D01*
X017880Y011434D01*
X017774Y011113D02*
X017560Y011113D01*
X017453Y011220D01*
X017453Y011434D01*
X017237Y011540D02*
X017130Y011540D01*
X016916Y011327D01*
X016916Y011540D02*
X016916Y011113D01*
X016699Y011220D02*
X016592Y011113D01*
X016272Y011113D01*
X016272Y011754D01*
X016592Y011754D01*
X016699Y011647D01*
X016699Y011540D01*
X016592Y011434D01*
X016272Y011434D01*
X016592Y011434D02*
X016699Y011327D01*
X016699Y011220D01*
X011100Y010485D02*
X011100Y010085D01*
X011100Y010485D02*
X011098Y010502D01*
X011094Y010519D01*
X011087Y010535D01*
X011077Y010549D01*
X011064Y010562D01*
X011050Y010572D01*
X011034Y010579D01*
X011017Y010583D01*
X011000Y010585D01*
X006700Y010585D01*
X006683Y010583D01*
X006666Y010579D01*
X006650Y010572D01*
X006636Y010562D01*
X006623Y010549D01*
X006613Y010535D01*
X006606Y010519D01*
X006602Y010502D01*
X006600Y010485D01*
X006600Y010085D01*
X006600Y009185D02*
X006600Y008785D01*
X006602Y008768D01*
X006606Y008751D01*
X006613Y008735D01*
X006623Y008721D01*
X006636Y008708D01*
X006650Y008698D01*
X006666Y008691D01*
X006683Y008687D01*
X006700Y008685D01*
X011000Y008685D01*
X011017Y008687D01*
X011034Y008691D01*
X011050Y008698D01*
X011064Y008708D01*
X011077Y008721D01*
X011087Y008735D01*
X011094Y008751D01*
X011098Y008768D01*
X011100Y008785D01*
X011100Y009185D01*
X009100Y009385D02*
X009100Y009635D01*
X009100Y009885D01*
X008950Y009885D02*
X008750Y009885D01*
X008750Y009385D01*
X008950Y009385D01*
X008950Y009885D01*
X008600Y009885D02*
X008600Y009635D01*
X008600Y009385D01*
D13*
X012919Y007093D02*
X012919Y003629D01*
X015281Y002920D02*
X015281Y005400D01*
X015281Y006581D02*
X015281Y007093D01*
X014350Y007093D01*
X013230Y007093D02*
X012919Y007093D01*
X018169Y007093D02*
X018169Y003629D01*
X020531Y002920D02*
X020531Y005400D01*
X020531Y006581D02*
X020531Y007093D01*
X019600Y007093D01*
X018480Y007093D02*
X018169Y007093D01*
X006914Y016209D02*
X006916Y016229D01*
X006921Y016249D01*
X006931Y016267D01*
X006943Y016284D01*
X006958Y016298D01*
X006976Y016308D01*
X006995Y016316D01*
X007015Y016320D01*
X007035Y016320D01*
X007055Y016316D01*
X007074Y016308D01*
X007092Y016298D01*
X007107Y016284D01*
X007119Y016267D01*
X007129Y016249D01*
X007134Y016229D01*
X007136Y016209D01*
X007134Y016189D01*
X007129Y016169D01*
X007119Y016151D01*
X007107Y016134D01*
X007092Y016120D01*
X007074Y016110D01*
X007055Y016102D01*
X007035Y016098D01*
X007015Y016098D01*
X006995Y016102D01*
X006976Y016110D01*
X006958Y016120D01*
X006943Y016134D01*
X006931Y016151D01*
X006921Y016169D01*
X006916Y016189D01*
X006914Y016209D01*
D14*
X006710Y016367D02*
X006710Y012902D01*
X006868Y012745D01*
X010332Y012745D01*
X010490Y012902D01*
X010490Y016367D01*
X010332Y016524D01*
X006868Y016524D01*
X006710Y016367D01*
X013150Y012789D02*
X013150Y011985D01*
X013500Y011185D02*
X015200Y011185D01*
X015550Y011985D02*
X015550Y012778D01*
X015200Y013585D02*
X013500Y013585D01*
X013650Y012385D02*
X013652Y012437D01*
X013658Y012489D01*
X013668Y012541D01*
X013681Y012591D01*
X013698Y012641D01*
X013719Y012689D01*
X013744Y012735D01*
X013772Y012779D01*
X013803Y012821D01*
X013837Y012861D01*
X013874Y012898D01*
X013914Y012932D01*
X013956Y012963D01*
X014000Y012991D01*
X014046Y013016D01*
X014094Y013037D01*
X014144Y013054D01*
X014194Y013067D01*
X014246Y013077D01*
X014298Y013083D01*
X014350Y013085D01*
X014402Y013083D01*
X014454Y013077D01*
X014506Y013067D01*
X014556Y013054D01*
X014606Y013037D01*
X014654Y013016D01*
X014700Y012991D01*
X014744Y012963D01*
X014786Y012932D01*
X014826Y012898D01*
X014863Y012861D01*
X014897Y012821D01*
X014928Y012779D01*
X014956Y012735D01*
X014981Y012689D01*
X015002Y012641D01*
X015019Y012591D01*
X015032Y012541D01*
X015042Y012489D01*
X015048Y012437D01*
X015050Y012385D01*
X015048Y012333D01*
X015042Y012281D01*
X015032Y012229D01*
X015019Y012179D01*
X015002Y012129D01*
X014981Y012081D01*
X014956Y012035D01*
X014928Y011991D01*
X014897Y011949D01*
X014863Y011909D01*
X014826Y011872D01*
X014786Y011838D01*
X014744Y011807D01*
X014700Y011779D01*
X014654Y011754D01*
X014606Y011733D01*
X014556Y011716D01*
X014506Y011703D01*
X014454Y011693D01*
X014402Y011687D01*
X014350Y011685D01*
X014298Y011687D01*
X014246Y011693D01*
X014194Y011703D01*
X014144Y011716D01*
X014094Y011733D01*
X014046Y011754D01*
X014000Y011779D01*
X013956Y011807D01*
X013914Y011838D01*
X013874Y011872D01*
X013837Y011909D01*
X013803Y011949D01*
X013772Y011991D01*
X013744Y012035D01*
X013719Y012081D01*
X013698Y012129D01*
X013681Y012179D01*
X013668Y012229D01*
X013658Y012281D01*
X013652Y012333D01*
X013650Y012385D01*
X013750Y017185D02*
X015450Y017185D01*
X015800Y017985D02*
X015800Y018778D01*
X015450Y019585D02*
X013750Y019585D01*
X013400Y018789D02*
X013400Y017985D01*
X013900Y018385D02*
X013902Y018437D01*
X013908Y018489D01*
X013918Y018541D01*
X013931Y018591D01*
X013948Y018641D01*
X013969Y018689D01*
X013994Y018735D01*
X014022Y018779D01*
X014053Y018821D01*
X014087Y018861D01*
X014124Y018898D01*
X014164Y018932D01*
X014206Y018963D01*
X014250Y018991D01*
X014296Y019016D01*
X014344Y019037D01*
X014394Y019054D01*
X014444Y019067D01*
X014496Y019077D01*
X014548Y019083D01*
X014600Y019085D01*
X014652Y019083D01*
X014704Y019077D01*
X014756Y019067D01*
X014806Y019054D01*
X014856Y019037D01*
X014904Y019016D01*
X014950Y018991D01*
X014994Y018963D01*
X015036Y018932D01*
X015076Y018898D01*
X015113Y018861D01*
X015147Y018821D01*
X015178Y018779D01*
X015206Y018735D01*
X015231Y018689D01*
X015252Y018641D01*
X015269Y018591D01*
X015282Y018541D01*
X015292Y018489D01*
X015298Y018437D01*
X015300Y018385D01*
X015298Y018333D01*
X015292Y018281D01*
X015282Y018229D01*
X015269Y018179D01*
X015252Y018129D01*
X015231Y018081D01*
X015206Y018035D01*
X015178Y017991D01*
X015147Y017949D01*
X015113Y017909D01*
X015076Y017872D01*
X015036Y017838D01*
X014994Y017807D01*
X014950Y017779D01*
X014904Y017754D01*
X014856Y017733D01*
X014806Y017716D01*
X014756Y017703D01*
X014704Y017693D01*
X014652Y017687D01*
X014600Y017685D01*
X014548Y017687D01*
X014496Y017693D01*
X014444Y017703D01*
X014394Y017716D01*
X014344Y017733D01*
X014296Y017754D01*
X014250Y017779D01*
X014206Y017807D01*
X014164Y017838D01*
X014124Y017872D01*
X014087Y017909D01*
X014053Y017949D01*
X014022Y017991D01*
X013994Y018035D01*
X013969Y018081D01*
X013948Y018129D01*
X013931Y018179D01*
X013918Y018229D01*
X013908Y018281D01*
X013902Y018333D01*
X013900Y018385D01*
X006677Y005607D02*
X006244Y005607D01*
X006677Y005607D02*
X006834Y005450D01*
X006834Y004820D01*
X006677Y004662D01*
X006244Y004662D01*
X005456Y004662D02*
X004866Y004662D01*
X004866Y005607D01*
X005456Y005607D01*
X008313Y003422D02*
X009887Y003422D01*
X010537Y003028D02*
X010537Y001847D01*
X007663Y001847D01*
X007663Y003028D01*
D15*
X007500Y008835D02*
X010200Y008835D01*
X010200Y009135D02*
X007500Y009135D01*
X007462Y009136D01*
X007425Y009141D01*
X007388Y009148D01*
X007352Y009157D01*
X007316Y009170D01*
X007282Y009185D01*
X007500Y008835D02*
X007444Y008837D01*
X007389Y008843D01*
X007334Y008852D01*
X007280Y008866D01*
X007227Y008883D01*
X007176Y008904D01*
X007126Y008928D01*
X007078Y008956D01*
X007031Y008987D01*
X006988Y009021D01*
X006946Y009058D01*
X006907Y009098D01*
X006871Y009140D01*
X006839Y009185D01*
X007282Y010085D02*
X007316Y010100D01*
X007352Y010113D01*
X007388Y010122D01*
X007425Y010129D01*
X007462Y010134D01*
X007500Y010135D01*
X010200Y010135D01*
X010200Y010435D02*
X007500Y010435D01*
X007444Y010433D01*
X007389Y010427D01*
X007334Y010418D01*
X007280Y010404D01*
X007227Y010387D01*
X007176Y010366D01*
X007126Y010342D01*
X007078Y010314D01*
X007031Y010283D01*
X006987Y010249D01*
X006946Y010212D01*
X006907Y010172D01*
X006871Y010130D01*
X006839Y010085D01*
X008450Y009635D02*
X008600Y009635D01*
X009100Y009635D02*
X009250Y009635D01*
X010200Y008835D02*
X010256Y008837D01*
X010311Y008843D01*
X010366Y008852D01*
X010420Y008866D01*
X010473Y008883D01*
X010524Y008904D01*
X010574Y008928D01*
X010622Y008956D01*
X010669Y008987D01*
X010713Y009021D01*
X010754Y009058D01*
X010793Y009098D01*
X010829Y009140D01*
X010861Y009185D01*
X010861Y010085D02*
X010829Y010130D01*
X010793Y010172D01*
X010754Y010212D01*
X010712Y010249D01*
X010669Y010283D01*
X010622Y010314D01*
X010574Y010342D01*
X010524Y010366D01*
X010473Y010387D01*
X010420Y010404D01*
X010366Y010418D01*
X010311Y010427D01*
X010256Y010433D01*
X010200Y010435D01*
X010200Y010135D02*
X010238Y010134D01*
X010275Y010129D01*
X010312Y010122D01*
X010348Y010113D01*
X010384Y010100D01*
X010418Y010085D01*
X010418Y009185D02*
X010384Y009170D01*
X010348Y009157D01*
X010312Y009148D01*
X010275Y009141D01*
X010238Y009136D01*
X010200Y009135D01*
D16*
X010092Y008004D02*
X010092Y007553D01*
X009942Y007553D02*
X010242Y007553D01*
X009942Y007854D02*
X010092Y008004D01*
X009782Y007929D02*
X009706Y008004D01*
X009556Y008004D01*
X009481Y007929D01*
X009481Y007628D01*
X009556Y007553D01*
X009706Y007553D01*
X009782Y007628D01*
X008242Y007553D02*
X007942Y007553D01*
X008242Y007854D01*
X008242Y007929D01*
X008167Y008004D01*
X008017Y008004D01*
X007942Y007929D01*
X007782Y007929D02*
X007706Y008004D01*
X007556Y008004D01*
X007481Y007929D01*
X007481Y007628D01*
X007556Y007553D01*
X007706Y007553D01*
X007782Y007628D01*
X005992Y007279D02*
X005692Y007279D01*
X005917Y007504D01*
X005917Y007053D01*
X005532Y007128D02*
X005456Y007053D01*
X005306Y007053D01*
X005231Y007128D01*
X005231Y007429D01*
X005306Y007504D01*
X005456Y007504D01*
X005532Y007429D01*
X004306Y007460D02*
X004231Y007385D01*
X004306Y007310D01*
X004306Y007235D01*
X004231Y007160D01*
X004081Y007160D01*
X004006Y007235D01*
X003846Y007235D02*
X003846Y007535D01*
X003771Y007610D01*
X003546Y007610D01*
X003546Y007160D01*
X003771Y007160D01*
X003846Y007235D01*
X004006Y007535D02*
X004081Y007610D01*
X004231Y007610D01*
X004306Y007535D01*
X004306Y007460D01*
X004231Y007385D02*
X004156Y007385D01*
X003386Y007610D02*
X003085Y007610D01*
X003085Y007160D01*
X003386Y007160D01*
X003236Y007385D02*
X003085Y007385D01*
X002925Y007160D02*
X002625Y007160D01*
X002625Y007610D01*
X002385Y009140D02*
X002460Y009215D01*
X002460Y009290D01*
X002385Y009365D01*
X002160Y009365D01*
X002160Y009215D01*
X002235Y009140D01*
X002385Y009140D01*
X002160Y009365D02*
X002310Y009515D01*
X002460Y009590D01*
X002000Y009515D02*
X002000Y009365D01*
X001925Y009290D01*
X001700Y009290D01*
X001850Y009290D02*
X002000Y009140D01*
X001700Y009140D02*
X001700Y009590D01*
X001925Y009590D01*
X002000Y009515D01*
X002000Y010715D02*
X001850Y010865D01*
X001925Y010865D02*
X001700Y010865D01*
X001700Y010715D02*
X001700Y011165D01*
X001925Y011165D01*
X002000Y011090D01*
X002000Y010940D01*
X001925Y010865D01*
X002160Y010940D02*
X002310Y011015D01*
X002385Y011015D01*
X002460Y010940D01*
X002460Y010790D01*
X002385Y010715D01*
X002235Y010715D01*
X002160Y010790D01*
X002160Y010940D02*
X002160Y011165D01*
X002460Y011165D01*
X003918Y011165D02*
X003918Y010715D01*
X003918Y010865D02*
X004143Y010865D01*
X004219Y010940D01*
X004219Y011090D01*
X004143Y011165D01*
X003918Y011165D01*
X004068Y010865D02*
X004219Y010715D01*
X004379Y010715D02*
X004679Y010715D01*
X004529Y010715D02*
X004529Y011165D01*
X004379Y011015D01*
X004454Y009590D02*
X004379Y009515D01*
X004454Y009590D02*
X004604Y009590D01*
X004679Y009515D01*
X004679Y009440D01*
X004379Y009140D01*
X004679Y009140D01*
X004219Y009140D02*
X004068Y009290D01*
X004143Y009290D02*
X003918Y009290D01*
X003918Y009140D02*
X003918Y009590D01*
X004143Y009590D01*
X004219Y009515D01*
X004219Y009365D01*
X004143Y009290D01*
X006625Y010835D02*
X006625Y011135D01*
X006700Y011210D01*
X006850Y011210D01*
X006925Y011135D01*
X006925Y010835D01*
X006850Y010760D01*
X006700Y010760D01*
X006625Y010835D01*
X006775Y010910D02*
X006925Y010760D01*
X007085Y010760D02*
X007386Y010760D01*
X007236Y010760D02*
X007236Y011210D01*
X007085Y011060D01*
X004556Y013410D02*
X004256Y013410D01*
X004556Y013710D01*
X004556Y013785D01*
X004481Y013860D01*
X004331Y013860D01*
X004256Y013785D01*
X004096Y013785D02*
X004021Y013860D01*
X003796Y013860D01*
X003796Y013410D01*
X004021Y013410D01*
X004096Y013485D01*
X004096Y013785D01*
X003636Y013860D02*
X003335Y013860D01*
X003335Y013410D01*
X003636Y013410D01*
X003486Y013635D02*
X003335Y013635D01*
X003175Y013410D02*
X002875Y013410D01*
X002875Y013860D01*
X002167Y016553D02*
X002167Y017004D01*
X001942Y016779D01*
X002242Y016779D01*
X001782Y016779D02*
X001706Y016703D01*
X001481Y016703D01*
X001481Y016553D02*
X001481Y017004D01*
X001706Y017004D01*
X001782Y016929D01*
X001782Y016779D01*
X001631Y016703D02*
X001782Y016553D01*
X003125Y016910D02*
X003425Y016910D01*
X003585Y016910D02*
X003886Y016910D01*
X004046Y016910D02*
X004271Y016910D01*
X004346Y016985D01*
X004346Y017285D01*
X004271Y017360D01*
X004046Y017360D01*
X004046Y016910D01*
X003736Y017135D02*
X003585Y017135D01*
X003585Y017360D02*
X003585Y016910D01*
X003125Y016910D02*
X003125Y017360D01*
X003585Y017360D02*
X003886Y017360D01*
X004506Y017210D02*
X004656Y017360D01*
X004656Y016910D01*
X004506Y016910D02*
X004806Y016910D01*
X006981Y019128D02*
X007056Y019053D01*
X007206Y019053D01*
X007282Y019128D01*
X007442Y019128D02*
X007442Y019279D01*
X007667Y019279D01*
X007742Y019203D01*
X007742Y019128D01*
X007667Y019053D01*
X007517Y019053D01*
X007442Y019128D01*
X007442Y019279D02*
X007592Y019429D01*
X007742Y019504D01*
X007282Y019429D02*
X007206Y019504D01*
X007056Y019504D01*
X006981Y019429D01*
X006981Y019128D01*
X008731Y019128D02*
X008806Y019053D01*
X008956Y019053D01*
X009032Y019128D01*
X009192Y019128D02*
X009267Y019053D01*
X009417Y019053D01*
X009492Y019128D01*
X009492Y019203D01*
X009417Y019279D01*
X009342Y019279D01*
X009417Y019279D02*
X009492Y019354D01*
X009492Y019429D01*
X009417Y019504D01*
X009267Y019504D01*
X009192Y019429D01*
X009032Y019429D02*
X008956Y019504D01*
X008806Y019504D01*
X008731Y019429D01*
X008731Y019128D01*
X012050Y018316D02*
X012050Y018241D01*
X012125Y018166D01*
X012275Y018166D01*
X012350Y018091D01*
X012350Y018016D01*
X012275Y017941D01*
X012125Y017941D01*
X012050Y018016D01*
X012050Y018316D02*
X012125Y018392D01*
X012275Y018392D01*
X012350Y018316D01*
X012511Y018316D02*
X012586Y018392D01*
X012736Y018392D01*
X012811Y018316D01*
X012811Y018241D01*
X012736Y018166D01*
X012811Y018091D01*
X012811Y018016D01*
X012736Y017941D01*
X012586Y017941D01*
X012511Y018016D01*
X012661Y018166D02*
X012736Y018166D01*
X013481Y016504D02*
X013706Y016504D01*
X013782Y016429D01*
X013782Y016279D01*
X013706Y016203D01*
X013481Y016203D01*
X013481Y016053D02*
X013481Y016504D01*
X013631Y016203D02*
X013782Y016053D01*
X013942Y016053D02*
X014242Y016053D01*
X014092Y016053D02*
X014092Y016504D01*
X013942Y016354D01*
X014402Y016354D02*
X014552Y016504D01*
X014552Y016053D01*
X014402Y016053D02*
X014702Y016053D01*
X016950Y016804D02*
X017025Y016729D01*
X017100Y016729D01*
X017175Y016804D01*
X017175Y017179D01*
X017100Y017179D02*
X017250Y017179D01*
X017410Y017029D02*
X017560Y017179D01*
X017560Y016729D01*
X017410Y016729D02*
X017710Y016729D01*
X012955Y012316D02*
X012879Y012392D01*
X012729Y012392D01*
X012654Y012316D01*
X012494Y012316D02*
X012419Y012392D01*
X012269Y012392D01*
X012194Y012316D01*
X012194Y012241D01*
X012269Y012166D01*
X012419Y012166D01*
X012494Y012091D01*
X012494Y012016D01*
X012419Y011941D01*
X012269Y011941D01*
X012194Y012016D01*
X012654Y011941D02*
X012955Y012241D01*
X012955Y012316D01*
X012955Y011941D02*
X012654Y011941D01*
X013231Y010254D02*
X013456Y010254D01*
X013532Y010179D01*
X013532Y010029D01*
X013456Y009953D01*
X013231Y009953D01*
X013231Y009803D02*
X013231Y010254D01*
X013381Y009953D02*
X013532Y009803D01*
X013692Y009803D02*
X013992Y009803D01*
X013842Y009803D02*
X013842Y010254D01*
X013692Y010104D01*
X014152Y010179D02*
X014152Y009878D01*
X014452Y010179D01*
X014452Y009878D01*
X014377Y009803D01*
X014227Y009803D01*
X014152Y009878D01*
X014152Y010179D02*
X014227Y010254D01*
X014377Y010254D01*
X014452Y010179D01*
X017162Y008716D02*
X017162Y008266D01*
X017162Y008416D02*
X017388Y008416D01*
X017463Y008491D01*
X017463Y008641D01*
X017388Y008716D01*
X017162Y008716D01*
X017313Y008416D02*
X017463Y008266D01*
X017623Y008341D02*
X017623Y008416D01*
X017698Y008491D01*
X017848Y008491D01*
X017923Y008416D01*
X017923Y008341D01*
X017848Y008266D01*
X017698Y008266D01*
X017623Y008341D01*
X017698Y008491D02*
X017623Y008566D01*
X017623Y008641D01*
X017698Y008716D01*
X017848Y008716D01*
X017923Y008641D01*
X017923Y008566D01*
X017848Y008491D01*
X021912Y008416D02*
X022138Y008416D01*
X022213Y008491D01*
X022213Y008641D01*
X022138Y008716D01*
X021912Y008716D01*
X021912Y008266D01*
X022063Y008416D02*
X022213Y008266D01*
X022373Y008266D02*
X022373Y008341D01*
X022673Y008641D01*
X022673Y008716D01*
X022373Y008716D01*
X022373Y009516D02*
X022673Y009516D01*
X022523Y009516D02*
X022523Y009966D01*
X022373Y009816D01*
X022213Y009741D02*
X022138Y009666D01*
X021912Y009666D01*
X021912Y009516D02*
X021912Y009966D01*
X022138Y009966D01*
X022213Y009891D01*
X022213Y009741D01*
X022063Y009666D02*
X022213Y009516D01*
X022833Y009516D02*
X023133Y009816D01*
X023133Y009891D01*
X023058Y009966D01*
X022908Y009966D01*
X022833Y009891D01*
X022833Y009516D02*
X023133Y009516D01*
X011992Y005929D02*
X011992Y005854D01*
X011917Y005779D01*
X011992Y005703D01*
X011992Y005628D01*
X011917Y005553D01*
X011767Y005553D01*
X011692Y005628D01*
X011532Y005553D02*
X011381Y005703D01*
X011456Y005703D02*
X011231Y005703D01*
X011231Y005553D02*
X011231Y006004D01*
X011456Y006004D01*
X011532Y005929D01*
X011532Y005779D01*
X011456Y005703D01*
X011692Y005929D02*
X011767Y006004D01*
X011917Y006004D01*
X011992Y005929D01*
X011917Y005779D02*
X011842Y005779D01*
X010242Y005779D02*
X010017Y005779D01*
X009942Y005854D01*
X009942Y005929D01*
X010017Y006004D01*
X010167Y006004D01*
X010242Y005929D01*
X010242Y005628D01*
X010167Y005553D01*
X010017Y005553D01*
X009942Y005628D01*
X009782Y005553D02*
X009631Y005703D01*
X009706Y005703D02*
X009481Y005703D01*
X009481Y005553D02*
X009481Y006004D01*
X009706Y006004D01*
X009782Y005929D01*
X009782Y005779D01*
X009706Y005703D01*
X009342Y004094D02*
X009342Y003644D01*
X009192Y003644D02*
X009492Y003644D01*
X009192Y003944D02*
X009342Y004094D01*
X009032Y004019D02*
X008956Y004094D01*
X008806Y004094D01*
X008731Y004019D01*
X008731Y003944D01*
X008806Y003869D01*
X008956Y003869D01*
X009032Y003794D01*
X009032Y003719D01*
X008956Y003644D01*
X008806Y003644D01*
X008731Y003719D01*
X006000Y004735D02*
X006000Y005535D01*
D17*
X006175Y003316D02*
X005781Y003316D01*
X006175Y003316D02*
X006175Y002922D01*
X006175Y001741D02*
X006175Y001347D01*
X003419Y003316D02*
X003025Y003316D01*
X003028Y003309D02*
X003028Y002922D01*
X003025Y002922D01*
X003025Y001741D02*
X003025Y001347D01*
D18*
X005600Y006623D02*
X005600Y006647D01*
X007850Y007123D02*
X007850Y007147D01*
X009850Y007123D02*
X009850Y007147D01*
X009100Y018623D02*
X009100Y018647D01*
X007350Y018647D02*
X007350Y018623D01*
D19*
X001850Y016135D03*
X002069Y010296D03*
X002069Y008721D03*
X004287Y008721D03*
X004287Y010296D03*
X011600Y005135D03*
M02*
